<svg xmlns="http://www.w3.org/2000/svg" viewBox="0 0 128 128" role="img" aria-label="Corona mundial">
 <defs><linearGradient id="a" x2="1" y2="1"><stop stop-color="#0f766e"/><stop offset="1" stop-color="#134e4a"/></linearGradient></defs>
 <rect width="128" height="128" rx="26" fill="url(#a)"/>
 <circle cx="64" cy="69" r="34" fill="#99f6e4" stroke="#fef3c7" stroke-width="3"/>
 <path d="M50 42c-9 7-12 19-9 29l10 1 6 10 7-3-4-12 7-7-5-9-12 1zm25 0l-7 11 9 8-6 6 7 8 8-3 9-13c-3-8-10-14-20-17z" fill="#0d9488"/>
 <path d="M35 23l11 9 18-17 18 17 11-9-6 21H41z" fill="#fbbf24" stroke="#fff7ed" stroke-width="2"/>
 <path d="M21 90l4 2 1 5 3-4 5 1-3-4 2-4-5 1-3-4-1 5zM103 86l3 3 4-1-2 4 3 3-5-1-3 3v-5l-4-2 4-1z" fill="#fde68a"/>
</svg>
