<svg xmlns="http://www.w3.org/2000/svg" viewBox="0 0 128 128" role="img" aria-label="Leyenda del planeta">
 <defs><linearGradient id="a" x2="1" y2="1"><stop stop-color="#7c2d12"/><stop offset=".55" stop-color="#a16207"/><stop offset="1" stop-color="#581c87"/></linearGradient></defs>
 <rect width="128" height="128" rx="26" fill="url(#a)"/>
 <circle cx="64" cy="68" r="34" fill="#e0f2fe" stroke="#fef08a" stroke-width="4"/>
 <path d="M42 58l12-15 12 7-5 10-11 4-1 17-8-10zm30-15 15 8 8 12-12 2-7 13-10 2 5-16-7-7z" fill="#0f766e"/>
 <path d="M29 21l13 10 22-19 22 19 13-10-8 27H37z" fill="#fde047" stroke="#fff" stroke-width="2"/>
 <path d="M16 78l3 5 6 1-4 4 1 6-6-3-6 3 1-6-4-4 6-1zm96 0 3 5 6 1-4 4 1 6-6-3-6 3 1-6-4-4 6-1z" fill="#fff7ed"/>
 <path d="M47 104h34" stroke="#fff" stroke-width="3" stroke-linecap="round"/>
</svg>
